<svg width="1061" height="596" viewBox="0 0 1061 596" fill="none" xmlns="http://www.w3.org/2000/svg">
<path opacity="0.96" d="M908.058 0.32901C914.397 0.26901 1055.54 0.095 1060.55 0V7.259C1055.33 7.662 990.409 7.79401 989.793 7.79001C989.18 7.79401 933.533 7.831 920.221 8.418C884.661 8.075 883.609 8.31598 880.488 11.321C865.875 25.051 852.619 39.633 848.111 42.118C843.776 44.479 838.793 41.113 824.951 42.856C816.882 44.428 789.246 43.76 788.53 43.777C754.355 43.22 763.085 44.528 756.745 44.558C756.134 44.561 690.302 44.685 686.069 44.954C686.069 44.954 638.917 45.144 613.075 45.314C602.253 45.593 582.717 44.674 578.868 47.058C575.256 49.287 559.82 65.263 544.363 80.185C542.206 82.215 495.719 127.902 495.719 127.902C495.097 128.493 463.988 159.182 458.243 164.256C431.041 191.438 429.911 192.576 426.013 193.619C422.362 194.548 392.606 194.497 391.996 194.491C387.862 194.476 296.898 194.634 294.543 194.778C287.382 195.279 284.06 203.244 269.809 215.504C269.372 215.921 247.646 237.051 244.496 240.262C220.544 262.344 221.399 266.417 210.869 266.417C210.869 266.417 165.428 266.477 165.14 266.484C112.47 266.679 113.448 265.507 109.341 269.253C94.8467 282.047 97.0097 285.804 80.9897 284.715C25.0657 284.572 26.1257 283.956 22.9767 287.051C8.77965 300.947 9.17262 298.212 9.19162 308.485C9.19062 310.285 10.0147 385.662 10.5217 390.848C10.8577 393.837 13.3336 395.905 15.4196 397.82C18.5306 400.364 21.2817 403.322 24.4107 405.859C30.2967 410.51 35.5377 406.798 44.5577 408.958C49.7547 410.77 53.2807 415.241 57.1777 418.888C59.6477 421.224 63.1367 421.761 66.3397 422.469C75.0117 425.088 88.4427 423.94 92.8547 437.913C96.5557 449.356 86.7617 460.005 76.0627 459.457C69.4507 459.811 62.7836 456.535 59.1546 450.997C56.5316 446.654 56.2637 441.463 54.9587 436.675C52.4647 427.497 55.3667 429.04 45.6017 419.566C41.6167 415.874 41.1277 415.966 26.6567 415.925C22.7837 416.084 19.8007 413.211 17.2207 410.716C12.8777 406.324 8.09565 402.366 3.92965 397.803C0.357653 393.951 1.44073 389.86 0.910732 352.989C0.910732 352.989 0.360619 336.413 0.0196187 302.393C-0.253381 296.834 2.16063 295.988 17.5556 280.416C22.0106 275.788 25.1486 277.311 35.7996 276.933C35.7996 276.933 82.0237 276.898 82.7907 276.896C87.7997 276.728 90.4137 277.11 100.022 265.959C108.977 255.681 107.998 259.447 187.075 258.688C206.56 258.089 211.037 260.303 215.969 255.614C219.531 252.346 265.241 207.268 265.851 206.677C274.136 199.884 281.899 189.896 285.559 188.061C289.332 186.17 287.093 186.788 348.733 186.524C351.624 186.518 354.522 186.018 357.431 186.335C362.494 186.86 367.587 186.359 372.668 186.225C423.749 185.82 421.102 187.453 425.783 183.151C425.783 183.151 449.704 159.956 449.706 159.954C454.256 155.282 458.947 150.75 463.521 146.102C463.771 146.029 464.259 145.882 464.503 145.803C477.589 132.215 501.87 109.319 503.126 107.162C510.814 100.596 546.408 64.403 553.057 59.018C570.982 41.093 556.047 55.514 571.71 40.463C575.99 36.364 573.161 37.287 668.401 37.169C669.013 37.146 697.534 36.658 711.635 36.754C714.461 36.803 749.49 36.423 756.162 36.772C769.343 38.275 814.824 36.747 815.438 36.717C830.712 35.871 835.329 38.844 840.727 36.68C844.405 34.942 847.077 31.721 849.651 28.671C851.572 26.329 854.086 24.584 856.233 22.456C870.268 9.08199 874.368 2.575 881.418 1.034C884.974 0.545997 888.585 0.845004 892.184 0.729004C897.475 0.817004 902.752 0.07301 908.058 0.32901ZM69.0887 449.186C73.7977 454.738 85.8707 451.321 85.4177 439.719C85.1247 435.199 80.8566 431.671 75.9206 430.716C65.6316 428.341 61.9457 443.127 69.0887 449.186Z" fill="#672F90"/>
<path opacity="0.96" d="M889.137 119.094C928.804 118.318 1045.78 118.861 1060.55 118.356V125.767C1060.44 125.762 1022.5 126.043 1021.55 126.09C1009.66 126.142 938.303 126.124 928.187 126.45C925.553 126.467 829.481 127.047 827.568 127.109C827.567 127.109 770.83 127.225 770.83 127.225C759.835 127.599 727.786 127.256 720.234 127.591C720.23 127.591 650.073 128.007 642.117 128.012C635.426 127.817 628.686 128.573 622.043 127.536C618.578 126.902 615.065 127.072 611.594 127.329C574.383 127.534 576.518 128.454 557.869 127.195C554.801 127.152 551.879 128.281 548.835 128.439C541.955 128.872 535.038 128.28 528.176 128.89C525.493 129.277 525.216 128.239 493.518 160.547C484.894 168.215 453.047 200.59 442.507 209.63C436.464 214.1 434.192 211.222 354.807 212.381C303.63 212.586 304.775 211.954 301.832 214.687L276.763 238.945C262.265 253.4 245.594 269.382 245.594 269.382C235.729 278.875 232.71 283.509 226.752 284.015C225.334 284.093 173.631 284.334 173.021 284.326C172.41 284.332 139.392 284.229 134.026 284.613C125.153 285.157 126.365 282.702 116.63 292.353C114.828 294.256 97.6127 311.271 92.5547 315.83C89.5787 318.795 58.3477 349.347 58.3477 349.347C52.8407 355.217 57.3097 356.923 60.8977 371.812C62.4077 381.253 60.3278 387.391 51.2238 392.038C35.6028 399.768 17.7738 382.495 26.5568 368.347C27.8358 366.223 56.2777 339.422 64.1847 331.383C65.6177 329.748 66.8687 327.931 68.6187 326.601C72.9737 323.289 76.2127 318.775 80.5797 315.481C84.5107 311.989 99.9618 295.84 104.271 292.168C120.843 277.7 115.153 277.767 126.736 276.577C148.029 276.398 205.33 276.628 221.914 276.254C227.177 276.44 227.115 275.125 249.966 252.435C249.966 252.435 266.877 236.248 272.278 230.806C282.542 219.907 295.646 207.872 295.646 207.872C299.331 203.833 302.96 204.19 325.571 204.499C347.879 204.574 391.55 203.95 391.55 203.95C433.645 203.261 433.706 205.178 437.065 202.456C437.728 201.849 460.957 179.174 460.957 179.174C460.957 179.174 484.706 156.017 484.709 156.014C488.332 152.513 491.657 148.682 495.658 145.584C499.336 142.729 501.642 138.527 505.289 135.642C513.687 128.902 517.545 121.228 524.387 120.838C524.998 120.803 547.495 120.158 550.048 120.771C553.78 121.661 577.839 120.191 595.649 121.07C599.333 120.905 603.023 120.692 606.726 120.856C610.959 119.904 615.125 122.149 619.34 121.118C625.629 119.752 632.088 120.465 638.468 120.288C643.372 120.624 648.215 119.196 653.119 119.77C657.163 120.215 661.256 120.368 665.324 119.916C668.557 119.532 671.795 120.075 675.047 120.087C678.908 120.185 682.763 119.544 686.636 119.831C690.04 120.128 719.623 119.723 720.239 119.715C723.503 119.693 764.541 119.714 769.164 119.215C772.97 118.928 776.758 119.794 780.576 119.471C785.852 119.032 791.14 119.166 796.435 119.166C796.445 119.166 863.904 119.072 869.057 119.05C875.742 118.692 882.44 118.85 889.137 119.094ZM34.9987 367.982C33.2547 370.025 33.6387 372.819 33.6687 375.295C33.9307 378.819 35.5638 381.802 36.8958 382.993C46.2428 391.449 59.6717 375.519 50.0347 367.445C46.1727 363.194 38.3717 363.09 34.9987 367.982Z" fill="#672F90"/>
<path opacity="0.96" d="M970.859 136.314C1000.75 135.997 1030.66 136.582 1060.55 135.85V143.615C1055.42 143.205 956.288 144.475 956.288 144.475C949.463 143.493 918.135 144.338 895.878 144.475C895.268 144.469 868.141 144.296 863.581 145.366C860.47 146.153 857.518 144.231 854.407 144.543C849.957 144.68 791.485 144.858 789.745 145.043C786.03 145.476 782.456 143.969 778.772 144.104C770.44 144.738 762.084 144.287 753.745 144.421C744.175 144.702 734.61 144.299 725.046 144.647C718.934 144.47 712.877 145.623 706.772 145.33C698.789 145.46 559.95 146.342 543.346 146.312C536.205 146.171 535.099 150.82 526.054 158.944C525.394 159.529 491.162 192.915 491.146 192.931C488.988 195.123 458.811 225.239 454.774 227.949C451.374 230.25 450.832 230.066 396.285 229.864C298.144 231.337 325.384 223.083 294.507 251.847C291.275 255.509 265.608 279.831 258.111 287.414C248.653 296.406 245.519 302.207 237.122 301.852C211.51 301.682 166.81 302.475 159.004 302.096C138.16 303.019 133.716 300.044 127.615 305.719C97.1978 335.135 97.3348 334.883 96.7568 338.401C95.4618 349.885 99.0027 353.017 101.618 356.828C105.494 363.399 119.089 377.296 105.369 389.009C93.9117 399.638 73.3187 390.993 73.9617 374.986C75.0017 366.401 78.2668 366.859 86.4228 352.283C89.3468 347.219 85.5908 337.003 89.2408 331.471C92.7948 327.278 111.855 309.447 118.171 302.449C125.83 295.921 122.636 293.56 147.437 294.117C151.097 294.251 226.09 294.142 226.707 294.141C239.902 293.878 236.875 295.158 243.981 289.121C244.252 288.888 295.577 238.281 296.956 236.725C311.211 224.882 306.571 222.849 318.847 222.135C322.387 222.13 401.243 222.136 406.693 221.58C406.693 221.58 410.457 222.004 440.222 221.495C449.617 221.024 445.668 224.621 463.681 206.886L501.084 170.514C507.993 164.731 530.519 139.307 535.931 138.589C541.007 137.783 671.389 137.685 672.007 137.698C683.691 136.956 776.274 138.576 782.336 137.253C783.655 136.975 920.373 136.294 920.846 136.308C937.519 136.35 954.189 136.1 970.859 136.314ZM84.1248 370.928C83.0638 373.728 84.0577 376.692 84.6917 379.474C85.7127 381.099 88.4728 388.788 96.2628 385.958C99.1238 385.11 101.076 382.695 102.893 380.474C102.856 380.261 102.789 379.827 102.753 379.608C105.008 374.962 103.707 369.086 95.9028 365.237C92.9128 365.267 87.1218 364.142 84.1248 370.928Z" fill="#F7EC2F"/>
<path opacity="0.96" d="M940.996 154.734C948.283 154.009 1057.6 153.816 1060.55 153.941V161.517C1059.92 161.517 979.09 161.541 975.16 161.865C974.795 161.896 945.254 161.493 945.254 161.493C940.978 161.292 936.739 162.591 932.5 161.688C923.351 161.17 914.177 161.706 905.028 161.688C905.028 161.688 889.732 162.425 861.062 162.389C856.468 162.211 819.895 162.807 814.772 162.596C797.529 162.893 735.842 162.846 720.241 163.316C712.974 163.301 619.981 163.608 619.927 163.609C618.978 163.642 578.081 163.881 577.468 163.865C568.099 163.554 558.736 164.06 549.373 164.024C545.646 163.774 542.767 166.482 540.431 169.013C540.425 169.02 506.325 202.459 505.285 203.415C493.415 215.337 480.997 227.254 480.387 227.819C476.672 232.07 472.195 235.529 468.31 239.597C465.138 242.415 462.491 246.386 458.038 247.185C453.598 247.949 430.012 247.275 418.86 247.618C415.151 247.875 388.005 247.419 380.451 247.923C347.61 248.116 336.558 247.99 336.558 247.99C330.036 248.662 330.356 246.702 321.59 255.712C321.586 255.716 307.306 269.399 297.484 279.208C292.098 284.745 266.957 308.898 260.551 315.488C258.233 317.873 255.25 319.99 251.768 319.807C241.588 319.612 231.407 319.892 221.233 319.703C211.371 320.244 166.975 320.087 166.361 320.093C161.353 319.983 158.242 324.43 154.912 327.455C153.173 329.096 151.868 331.188 151.356 333.536C148.367 346.083 148.786 355.283 140.322 360.496C131.102 366.464 117.392 363.944 112.508 353.091C107.689 343.251 114.603 332.206 123.28 330.01C140.034 325.816 141.596 326.291 145.306 324.087C151.288 320.796 154.967 314.004 159.085 312.864C162.441 311.872 188.596 312.631 218.178 312.321C235.581 310.867 247.277 313.818 251.976 311.113C254.078 309.893 266.028 297.87 267.945 296.017C268.555 295.472 283.165 280.397 286.921 277.175C291.347 273.426 312.246 252.297 313.918 250.538C316.248 247.494 319.499 245.353 321.982 242.45C322.25 242.395 322.781 242.273 323.043 242.218C323.257 241.931 323.671 241.358 323.879 241.077C333.917 238.883 364.4 240.103 381.038 239.827C462.659 239.468 452.804 241.021 459.143 235.399C462.176 233.091 478.643 216.937 479.253 216.374C481.461 214.379 483.163 211.885 485.487 210.006C485.566 209.75 485.719 209.231 485.798 208.969C486.121 208.878 486.768 208.695 487.091 208.603C494.452 200.998 510.568 185.486 510.568 185.486C510.568 185.486 522.879 173.387 529.928 166.358C539.234 156.538 541.347 155.67 548.849 155.684C617.879 155.725 654.505 155.529 660.392 155.501C663.668 155.489 666.931 154.964 670.219 155.025C673.366 154.994 676.508 155.464 679.667 155.226C679.667 155.226 774.215 155.121 792.686 154.732C794.772 154.798 887.109 154.427 889.127 154.409C894.611 154.47 900.082 155.458 905.578 154.854C917.378 154.655 929.187 154.911 940.996 154.734ZM134.58 355.362C140.985 351.092 143.665 341.637 133.793 335.99C112.718 329.968 118.913 363.3 134.58 355.362Z" fill="#672F90"/>
<path opacity="0.96" d="M931.242 172.179C936.184 171.902 1047.15 171.528 1060.55 171.703V179.187C1060.55 179.187 957.465 179.48 957.465 179.48C934.504 180.051 945.188 179.719 895.865 179.852C891.582 180.051 849.306 179.93 842.804 180.096C842.804 180.096 843.639 180.42 750.651 180.56C750.65 180.56 706.167 181.024 706.167 181.024C682.264 181.024 626.478 181.216 626.268 181.213C623.224 181.219 620.248 180.42 617.216 180.505C598.673 181.688 580.088 180.67 561.527 181.103C558.407 181.131 557.197 182.68 544.777 195.297C540.272 199.242 519.453 220 518.872 220.61C518.872 220.61 502.111 236.475 481.726 257.293C469.163 268.473 478.164 264.333 422.529 265.491C397.112 265.046 371.701 266.138 346.296 265.625C342.52 265.436 339.544 268.089 337.098 270.615C336.086 271.68 319.337 288.548 315.597 291.866C310.474 297.244 282.001 324.089 278.42 328.47C277.182 329.94 276.11 331.593 272.943 348.196C269.859 362 256.915 365.481 248.935 362.506C236.669 358.622 230.521 343.84 240.237 334.179C244.506 329.868 248.57 329.373 263.483 325.877C272.915 323.494 270.455 323.347 279.549 314.922C280.16 314.308 322.939 272.155 326.083 269.419C332.322 264.278 332.957 258.213 344.473 257.708C437.75 257.412 452.171 257.475 460.384 257.476C472.51 257.837 471.634 253.105 480.769 245.326C480.77 245.325 516.171 210.577 516.171 210.577C516.171 210.576 550.633 176.706 550.634 176.706C555.214 172.245 566.462 175.353 597.589 174.053L638.468 173.284C652.457 173.379 673.943 172.955 673.943 172.955C673.943 172.955 707.495 172.461 717.763 173.126C729.428 172.679 801.203 172.548 807.421 172.595C816.162 172.729 824.878 172.077 833.619 172.211C866.16 172.197 898.701 172.167 931.242 172.179ZM247.155 338.113C244.88 341.508 245.703 349.101 250.241 353.277C256.473 358.197 265.213 352.868 264.978 348.239L265.448 348.544C266.834 343.127 265.687 337.893 260.532 335.18C256.331 332.726 249.795 333.466 247.155 338.113Z" fill="#F7EC2F"/>
<path opacity="0.96" d="M878.194 189.953C878.196 189.953 1031.84 189.526 1031.84 189.526C1039.69 189.977 1053.54 188.126 1060.55 191.264V201.591C1053.29 196.754 1057.72 196.244 1018.5 197.157L887.307 197.987C887.307 197.987 804.873 198.259 788.506 198.231C784.639 198.31 780.814 197.456 776.96 197.713C773.719 197.877 728.352 198.27 727.553 198.256C727.553 198.256 699.213 199.071 673.797 198.768C569.024 199.966 573.285 198.136 569.652 201.269C568.072 202.6 524.519 245.394 524.021 245.912C482.446 286.306 489.66 282.677 476.2 283.12C464.936 283.539 382.572 282.38 378.93 285.041C376.373 286.853 325.211 337.337 323.649 338.906C323.649 338.906 288.822 373.087 288.82 373.088C279.018 382.111 284.341 378.981 227.36 379.352C219.633 378.999 217.842 374.96 211.91 370.233C210.519 368.976 208.531 369.245 206.86 368.8C204.249 368.269 202.651 365.567 199.955 365.287C192.182 363.977 173.22 362.083 173.288 346.354C172.896 337.49 181.017 326.775 195.405 329.22C211.145 333.197 211.417 348.228 212.807 352.996C213.875 356.699 214.296 360.962 217.248 363.762C219.816 366.226 222.347 368.831 225.409 370.697C228.171 372.451 228.209 371.521 268.222 371.581C278.696 371.293 276.215 372.68 284.722 364.627C287.564 361.778 290.364 358.875 293.493 356.325C296.903 353.397 299.214 349.396 302.789 346.639C305.1 344.902 351.915 298.96 363.37 287.107C374.914 276.39 372.39 275.891 384.56 275.365C387.825 275.865 405.704 275.09 408.47 275.237C411.038 275.435 463.832 275.107 477.432 275.225C482 275.225 483.629 273.552 497.25 259.397C499.354 257.189 502.038 255.573 503.856 253.072C505.783 250.352 508.699 248.625 511.029 246.289C523.867 233.26 562.875 195.082 563.784 194.278C566.163 192.082 569.493 191.509 572.628 191.588C583.589 191.765 594.556 191.283 605.517 191.637C609.457 191.771 613.367 190.746 617.326 191.204C620.29 191.582 623.285 191.381 626.268 191.137C665.701 190.738 752.369 191.534 767.754 191.149C775.074 190.887 782.436 191.643 789.731 190.692C793.976 190.125 798.271 190.485 802.552 190.381C820.229 190.18 837.905 190.46 855.588 190.332C863.122 190.338 870.649 189.74 878.194 189.953ZM188.288 353.667C195.63 360.148 207.558 351.171 203.506 340.486C201.89 338.077 199.749 336.107 197.15 334.826C188.532 331.268 177.767 342.12 188.288 353.667Z" fill="#6AC8C1"/>
<path opacity="0.96" d="M919.58 455.42C924.831 451.848 926.515 454.492 1060.55 453.48V460.385C1059.94 460.392 1039.4 460.765 1008.71 460.989C921.869 461.049 926.9 459.868 922.428 463.825C908.687 475.861 904.272 485.138 895.876 485.161C874.873 485.466 786.961 485.437 786.687 485.417C776.896 485.386 748.962 486.235 742.16 485.881C741.859 485.864 721.414 485.749 713.492 485.924C587.284 486.116 597.621 486.245 592.702 485.406C590.027 484.866 576.838 486.27 572.433 485.821C568.822 485.48 565.211 485.736 561.619 485.98C557.74 486.23 553.897 485.315 550.036 485.681C548.348 485.828 514.317 486.614 514 486.608C508.711 486.19 505.046 492.525 497.867 499.021C497.256 499.586 463.003 533.153 456.048 540.242C455.401 540.867 412.037 583.674 409.02 586.562C396.27 598.61 406.736 594.985 351.153 595.791C291.154 595.855 297.103 597.538 288.474 589.582C277.819 578.44 275.196 577.72 272.542 577.712C272.45 577.709 246.448 578.23 230.406 577.816C216.176 578.31 201.933 578.005 187.703 578.121C184.092 578.249 180.567 576.822 177.962 574.358C167.457 564.901 153.035 550.354 148.214 546.214C147.603 545.623 114.425 513.771 110.433 511.513C101.941 507.936 85.7867 510.339 78.5687 498.68C74.2457 492.137 73.9947 480.251 87.9677 473.452C90.9077 473.123 93.8718 472.647 96.8548 472.885C103.607 473.582 110.162 479.384 112.22 485.127C114.483 491.3 115.465 497.851 117.313 504.146C119.106 509.233 124.151 511.838 127.658 515.583C129.708 517.705 151.528 538.046 152.538 538.859C153.149 539.414 173.39 559.053 177.229 562.342C190.402 573.798 181.528 569.5 210.283 570.461C221.973 570.74 251.32 569.653 259.031 570.168C264.108 570.471 275.402 568.841 280.916 571.614C282.869 572.518 292.559 581.781 293.158 582.392C298.873 587.91 299.146 588.215 307.279 588.254C308.066 588.258 333.128 587.952 334.69 588.028C334.69 588.028 371.883 587.967 371.885 587.967C376.576 588.181 381.266 587.455 385.963 587.815C388.714 587.931 391.526 588.096 394.265 587.54C398.362 586.429 399.679 583.263 417.797 565.984C432.34 551.053 464.091 520.389 481.453 502.896C489.015 496.14 488.132 496.179 503.405 481.456C507.942 476.906 515.069 479.533 542.064 479.291C542.681 479.305 592.867 479.278 598.241 478.516C601.558 478.452 669.65 478.395 670.777 478.461C678.876 478.088 709.365 478.611 740.325 478.229C747.577 477.84 833.714 477.999 840.31 478.022C897.614 478.163 895.252 478.668 898.738 475.424C902.575 471.953 905.874 467.921 909.852 464.591C913.249 461.703 915.963 458.055 919.58 455.42ZM86.0397 485.967C86.0517 489.078 85.8687 492.457 87.5337 495.238C88.6987 497.348 90.1077 499.752 92.6447 500.374C95.4877 500.71 98.8237 500.905 101.111 498.819C102.49 497.459 104.338 496.184 104.612 494.116C104.703 494.104 104.88 494.085 104.972 494.079C105.631 491.517 106.155 488.724 105.106 486.198C101.976 477.012 88.2137 477.361 86.0397 485.967Z" fill="#6AC8C1"/>
<path opacity="0.96" d="M926.534 424.562C929.19 424.407 1059.94 424.288 1060.55 424.287V431.289C1051.9 430.877 1022.99 432.042 1009.87 431.624C981.179 432.106 977.164 431.381 935.488 431.892C930.12 431.605 924.765 432.002 919.41 432.215C917.037 432.282 915.018 433.691 913.341 435.222C910.552 437.747 888.094 460.371 887.735 460.792C881.173 468.371 877.013 466.963 871.492 467.099C804.605 467.171 803.14 467.52 803.14 467.52C799.408 467.462 772.283 468.216 765.835 466.367C763.059 466.04 736.258 465.517 736.063 465.525C726.719 466.33 717.325 465.659 707.968 465.982C704.65 466.141 701.582 467.751 698.251 467.708C697.638 467.713 660.871 467.865 659.232 467.793C657.826 467.836 610.497 468.728 597.577 467.982C597.577 467.982 591.525 468.467 513.427 468.366C502.926 468.923 504.697 467.767 495.756 476.277C493.964 478.009 461.232 510.536 457.725 513.936C448.796 522.435 428.557 542.653 423.964 547.203C415.711 555.633 406.952 563.544 398.754 572.028C395.966 575.175 392.124 577.713 387.769 577.512C364.454 577.413 305.895 577.649 304.119 577.469C297.65 576.862 290.933 566.535 281.965 560.805C278.286 558.599 261.86 559.68 259.049 559.786C230.59 559.949 227.307 560.364 223.11 557.31C218.755 554.205 215.62 549.472 210.679 547.203C202.341 544.3 192.825 545.202 185.14 540.414C175.477 534.768 173.357 521.057 182.67 513.198C191.217 505.8 205.102 507.806 212.07 519.005C214.82 524.559 216.55 536.988 219.31 541.811C221.141 545.197 228.522 552.036 233.424 552.119C234.035 552.114 280.262 551.839 281.068 551.942C283.557 552.21 286.307 552.479 288.229 554.309C291.559 557.322 295.079 560.146 298.165 563.44C308.346 573.245 304.531 568.769 337.788 569.985C387.903 569.845 388.069 570.934 392.08 566.575C403.588 554.753 435.021 524.11 435.021 524.11C435.633 523.471 455.34 503.752 458.791 500.901C463.514 496.045 474.849 484.459 492.412 467.433C500.47 459.409 500.137 460.892 519.476 460.809C519.477 460.809 611.012 460.65 611.013 460.65L663.469 460.168C663.927 460.206 697.796 460.167 698.255 460.168C698.983 460.154 714.823 461.728 722.647 460.589C725.649 460.214 742.502 460.319 745.502 460.528C750.4 460.453 751.497 460.183 754.938 460.644C755.292 460.601 772.775 459.755 773.255 459.784C774.576 459.868 803.085 459.734 806.821 459.558C809.295 459.619 873.485 460.315 876.472 459.204C879.766 457.662 905.681 431.1 906.268 430.487C908.537 428.236 910.879 425.656 914.179 425.01C918.251 424.312 922.41 424.824 926.534 424.562ZM187.281 523.278C187.61 526.163 188.922 528.804 189.599 531.616C190.526 533.049 191.368 534.751 193.051 535.447C203.608 540.717 214.91 523.325 200.852 515.331C191.621 512.522 186.561 519.015 187.281 523.278Z" fill="#F7EC2F"/>
<path opacity="0.96" d="M886.368 412.942C888.942 410.533 892.578 410.368 895.865 409.673C898.921 408.886 901.909 410.417 904.996 410.259C905.127 410.259 1038.59 409.802 1038.59 409.802C1045.9 410.052 1053.23 409.436 1060.55 409.918V417.543C1044.83 416.504 1004.29 417.829 992.856 417.665C887.576 417.807 894.828 416.103 888.834 422.221C865.118 445.83 863.647 448.351 858.226 448.98C852.69 449.533 742.578 449.383 734.227 449.413C733.617 449.429 598.422 450.683 589.044 449.584C588.613 449.578 528.086 449.853 527.493 449.968C524.455 450.517 521.369 450.804 518.301 450.468C513.214 449.901 508.121 450.682 503.034 450.627C482.48 450.989 504.162 439.961 401.25 538.534C397.401 543.005 392.796 546.689 388.667 550.867C385.709 553.679 383.165 557.284 379.152 558.656C376.136 559.605 320.053 559.229 319.443 559.223C314.972 559.089 310.068 560.327 306 557.918C301.987 555.606 299.205 551.782 295.649 548.903C287.543 542.257 285.002 536.148 278.576 538.326C265.261 542.403 257.768 546.233 249.554 541.327C237.865 535.496 236.628 521.554 243.491 514.373C248.322 508.883 256.66 506.749 263.504 509.414C267.92 510.628 271.305 513.836 274.617 516.831C274.617 516.831 303.967 545.446 304.273 545.731C312.451 552.974 305.479 551.858 364.592 551.599C379.617 551.453 374.109 551.81 382.458 545.243C382.828 544.949 406.472 521.575 408.07 519.735C408.07 519.735 472.544 456.335 477.483 451.279C481.009 447.9 484.357 443.282 489.688 443.008C517.685 442.661 535.398 443.301 535.398 443.301C569.257 443.263 662.63 441.885 686.601 442.453C686.602 442.453 853.23 441.892 853.23 441.892C860.05 441.732 862.176 436.225 875.256 423.862C879.03 420.298 882.482 416.401 886.368 412.942ZM258.226 514.738C246.427 517.66 249.359 530.553 256.042 535.342C264.217 540.335 272.499 529.206 270.089 522.569C269.43 519.678 267.143 517.659 264.868 515.994C262.703 515.294 260.482 514.781 258.226 514.738Z" fill="#7F3F98"/>
<path opacity="0.96" d="M873.315 395.998C873.316 395.998 1060.55 395.419 1060.55 395.419V403.056C1057.5 402.574 1029.43 403.012 1028.82 403.038C933.803 403.124 935.561 403.264 935.561 403.264C934.375 403.182 873.203 403.64 872.595 403.697C866.681 404.082 863.039 411.828 855.595 417.092C851.85 419.77 847.049 418.702 842.773 418.91C836.679 419.154 830.592 419.13 824.505 418.91C824.505 418.91 773.33 419.245 773.329 419.245C769.314 419.483 751.088 417.289 741.562 418.031C732.374 418.606 708.833 417.578 702.445 419.05C698.623 419.883 703.332 419.265 621.345 419.727C608.591 420.511 549.785 419.769 523.19 420.355C493.992 419.597 490.186 419.871 486.794 423.454C486.643 423.605 457.75 451.911 457.278 452.409C457.278 452.409 449.492 460.236 419.522 489.732C408.309 500.483 410.431 498.454 396.892 498.796C396.879 498.796 334.682 499.174 334.682 499.174C333.605 499.182 290.175 499.405 287.703 499.308C287.089 499.317 228.307 500.268 223.822 498.106C219.138 495.886 216.362 491.195 212.05 488.456C208.097 485.668 203.114 485.528 198.545 484.595C192.714 483.552 186.303 482.777 181.814 478.508C177.587 475.074 174.513 469.682 175.464 464.101C176.604 451.613 189.984 446.308 198.728 449.188C214.663 453.67 213.759 471.736 217.222 480.381C218.338 482.815 225.579 491.876 232.806 491.824C232.808 491.824 322.507 491.488 322.507 491.488C327.505 491.068 386.358 491.509 403.54 491.14C406.267 490.878 408.298 488.798 410.109 486.931C415.074 481.557 420.57 476.714 425.578 471.377C427.536 469.679 448.586 448.978 448.775 448.796C458.216 439.593 472.701 424.725 474.503 423.33C477.226 421.13 482.593 413.374 488.367 413.058C493.829 412.573 524.489 413.009 528.637 412.881C528.637 412.881 595.002 412.389 597.599 412.302C597.6 412.302 662.92 412.399 662.92 412.4C662.92 412.4 687.373 412.136 712.839 412.803C768.626 412.716 769.632 412.034 769.632 412.034C788.45 412.066 844.812 411.901 845.834 411.888C853.307 411.771 856.455 402.743 865.133 397.31C867.599 395.876 870.552 396.065 873.315 395.998ZM185.61 463.404C185.672 469.389 190.206 473.932 192.557 474.42C197.327 476.183 203.067 473.365 204.756 468.625L205.073 468.619C205.482 466.881 205.957 465.13 205.915 463.337C205.415 458.427 201.182 454.072 196.247 453.657C190.861 452.944 184.914 457.75 185.61 463.404Z" fill="#F7EC2F"/>
<path opacity="0.96" d="M448.069 388.831C451.414 388.13 460.118 384.605 470.113 394.491C475.151 400.048 475.963 409.539 470.821 415.285C470.284 415.913 469.772 416.548 469.284 417.2C445.07 434.1 422.726 401.889 448.069 388.831ZM451.442 393.918C449.075 395.431 446.691 397.596 446.538 400.597C446.501 403.397 446.026 406.544 447.8 408.966C449.483 411.29 451.533 413.766 454.51 414.382C464.547 416.025 468.647 404.794 465.959 399.395C464.587 396.406 461.75 394.521 458.804 393.32C456.328 393.235 453.809 393.1 451.442 393.918Z" fill="#6AC8C1"/>
<path opacity="0.96" d="M37.5966 299.722C52.5776 297.396 60.9247 308.286 60.6777 317.045C61.2407 327.378 50.4797 335.103 40.5737 333.923C23.7607 332.039 17.5526 313.168 30.2166 303.529C32.3816 301.753 35.0166 300.74 37.5966 299.722ZM32.0337 317.85C32.4787 321.004 35.0407 323.212 37.3707 325.115C44.0847 328.052 49.6997 324.265 50.9787 318.546C51.0827 318.522 51.2896 318.467 51.3936 318.442C53.7176 310.421 47.5967 305.269 41.3297 304.858C35.6007 305.066 30.6827 309.052 32.0337 317.85Z" fill="#6AC8C1"/>
<path opacity="0.96" d="M656.755 298.422C765.54 300.597 790.595 294.888 801.73 299.837C828.378 324.943 819.287 314.992 840.67 321.429C847.203 323.466 853.131 328.499 854.638 335.397C856.931 345.26 846.416 355.337 836.626 352.775C833.003 352.189 829.898 349.969 826.263 349.481C822.628 348.328 819.767 345.461 818.559 341.863C817.172 338.816 815.178 324.536 811.947 320.966C809.852 318.569 798.297 307.441 796.07 306.376C793.539 305.107 790.623 305.351 787.903 305.394C780.992 305.632 774.081 305.205 767.183 305.431C762.901 305.51 758.613 305.315 754.392 304.681C749.525 303.967 744.627 304.748 739.753 304.468C732.524 304.117 719.096 305.192 718.959 305.182C702.7 304.191 684.197 305.595 683.581 305.578C641.277 306.068 645.323 304.096 637.706 311.348C631.542 317.517 610.483 337.839 589.922 358.76C578.147 369.689 578.447 372.254 566.445 371.947C566.441 371.947 487.821 372.319 487.821 372.319C436.536 373.768 434.606 369.795 428.21 376.479C406.805 397.647 403.635 400.572 403.635 400.572C389.841 414.755 386.462 416.309 385.672 420.182C385.434 424.635 385.709 429.1 385.654 433.558C385.575 435.98 386.112 438.413 387.27 440.554C388.301 441.987 389.228 443.5 390.167 445.007C391.85 446.745 393.083 448.856 394.077 451.058C395.211 453.656 397.371 455.633 398.591 458.195C401.555 463.605 401.232 471.047 396.932 475.682C388.863 484.839 377.75 484.491 370.673 478.659C364.805 474.774 361.572 466.746 364.091 460.019C364.921 456.914 367.116 454.48 368.8 451.821C375.877 441.988 376.73 438.746 376.601 435.401C376.155 419.89 375.32 416.48 379.23 412.802C379.23 412.802 389.407 402.379 401.323 390.874C402.979 389.081 423.37 368.72 427.789 365.591C431.851 364.475 436.091 365.127 440.257 364.975C444.427 364.984 508.059 364.913 512.202 364.725C525.711 364.532 550.096 364.246 563.573 364.457C572.391 363.252 567.912 368.391 583.549 353.02C583.924 352.647 626.862 309.888 627.277 309.56C631.565 306.315 634.645 301.588 639.531 299.099C645.202 297.989 651.009 298.612 656.755 298.422ZM373.55 468.528C374.377 469.82 377.986 477.8 385.92 474.969C388.451 474.444 390.043 472.291 391.77 470.553C401.75 452.467 366.399 445.617 373.55 468.528Z" fill="#6AC8C1"/>
<path opacity="0.96" d="M843.427 273.829C848.111 273.286 852.784 273.988 857.474 274.067C860.109 274.079 862.549 275.342 864.604 276.922C866.269 278.211 877.194 286.963 877.871 291.354C878.364 294.67 879.024 320.703 879.024 321.321C880.457 344.34 871.923 333.717 906.57 364.903C910.618 368.463 916.025 366.89 925.771 366.928C931.094 366.986 999.833 366.902 1005.6 366.568C1016.2 366.881 1053.23 366.421 1053.84 366.361C1056.36 365.806 1058.45 364.104 1060.55 362.671V373.199C1057.55 373.968 1054.45 374.004 1051.39 373.882C1051.27 373.878 1002.19 374.23 1000.78 374.358C894.354 374.55 907.32 376.763 896.835 366.66C890.363 360.981 884.099 355.065 877.841 349.154C875.249 346.745 872.034 344.445 871.308 340.755C870.184 335.118 870.584 316.614 869.801 309.037C868.008 291.241 872.108 295.337 861.542 284.913C859.212 282.516 855.979 281.058 852.618 281.18C852.618 281.18 782.537 281.683 780.539 281.631C778.595 281.542 665.738 281.906 664.659 281.869C626.207 283.227 621.752 281.185 617.497 283.26C611.782 286.252 582.505 316.131 579.893 318.808C574.818 323.938 568.902 328.268 564.437 333.984C562.095 337.083 559.374 339.864 556.434 342.389C545.353 352.021 548.238 354.289 535.372 354.289C535.345 354.288 496.992 354.671 494.499 354.564C494.499 354.564 423.135 354.906 423.134 354.906C416.828 354.891 416.743 357.658 382.175 391.284C381.76 391.761 336.867 435.684 336.861 435.689C330.818 441.446 331.318 442.45 333.226 448.309C337.382 459.713 339.433 466.703 336.746 472.287C323.283 499.019 283.62 470.75 307.687 451.524C313.415 447.06 373.791 387.222 374.404 386.612C394.927 366.251 409.783 351.267 413.454 348.831C417.04 346.458 421.524 347.239 425.592 347.08C429.41 347.245 433.198 346.257 437.029 346.696C438.684 346.885 485.241 346.745 487.186 346.696C487.54 346.68 527.725 346.697 528.078 346.696C532.5 346.684 537.569 347.971 541.375 344.97C547.676 339.773 552.574 333.003 559.29 328.263C562.253 326.216 570.923 315.583 577.144 310.617C585.384 302.395 593.729 294.27 602.042 286.121C605.385 282.559 608.026 278.131 612.454 275.764C615.589 274.209 619.2 274.623 622.598 274.562C631.741 274.757 640.885 274.507 650.034 274.715C688.261 273.657 802.254 274.458 822.695 273.916C829.599 274.189 836.51 273.78 843.427 273.829ZM322.314 474.146C328.211 472.61 334.927 462.578 323.497 454.304C321.015 453.548 318.361 453.334 315.83 453.847C305.027 456.866 308.132 476.181 322.314 474.146Z" fill="#F7EC2F"/>
<path opacity="0.96" d="M902.556 243.618C909.9 243.331 917.25 243.856 924.6 243.527C928.205 243.423 931.822 242.514 935.439 243.246C938.855 243.929 942.387 243.258 945.821 243.819C950.566 245.283 953.915 249.193 957.953 251.871C961.65 254.268 963.858 258.233 967.243 261.002C971.019 264.198 975.264 267.681 976.374 272.768L978.942 337.735C978.948 340.663 978.942 343.67 979.979 346.457C981.297 349.891 984.841 352.294 988.531 352.282C1071.37 352.873 1039.74 353.02 1060.55 340.333V351.977C1057.32 353.917 1055.03 357.186 1051.52 358.668C1048.14 359.857 1050.58 359.941 985.481 359.742C980.571 359.718 976.905 355.881 973.77 352.575C967.911 346.386 970.602 284.3 966.975 273.341C965.032 268.76 954.855 261.104 953.745 260.373C946.129 255.289 945.405 251.445 941.698 251.272L877.536 251.229C876.926 251.217 807.214 251.269 798.876 251.717C796.046 251.827 751.698 250.328 751.36 250.284C746.438 249.692 741.552 250.863 736.642 250.632C730.975 250.498 725.254 250.345 719.697 251.596C713.199 252.301 663.524 251.906 640.28 252.602C631.545 252.248 622.805 252.529 614.076 252.657C610.434 252.627 607.592 255.133 605.207 257.579C591.761 271.093 533.584 328.247 532.366 329.31C523.673 336.879 526.713 336.273 514.061 336.623C501.777 336.551 413.523 337.015 409.038 337.233C403.428 337.367 402.724 341.603 363.62 378.936C342.139 400.524 294.549 446.367 282.459 458.737C275.614 465.934 276.786 475.191 265.301 481.299C252.454 487.863 237.706 477.254 237.969 465.245C237.468 459.538 242.02 448.387 257.854 448.069C262.295 448.746 266.814 448.289 271.267 448.953C281.019 449.516 276.527 452.169 309.146 420.139C312.464 416.369 316.472 413.253 319.528 409.245C321.669 406.494 324.816 404.792 327.128 402.194C327.128 402.194 372.452 357.876 372.46 357.868C399.562 331.767 398.657 328.624 408.96 329.096C409.034 329.101 476.477 328.961 495.135 328.742C518.2 329.884 520.876 328.691 523.821 325.589C528.569 320.799 593.014 257.112 597.907 252.681C607.448 243.899 603.186 244.986 620.189 244.758C670.772 244.944 676.092 244.498 695.781 244.484C718.364 244.555 772.594 245.737 784.213 244.289C784.213 244.289 868.778 243.699 873.322 243.679C883.062 243.331 892.803 243.801 902.556 243.618ZM251.211 471.889C256.464 478.551 269.869 474.578 268.198 461.343C266.972 458.574 264.953 456.256 262.434 454.603C260.037 453.56 257.371 453.426 254.828 453.804C248.457 455.654 244.553 464.631 251.211 471.889Z" fill="#7F3F98"/>
<path opacity="0.96" d="M831.197 225.88C1092.23 225.687 1027.02 219.863 1060.55 242.355V253.102C1054.7 248.838 1049.78 243.483 1044.36 238.707C1039.03 234.078 1038.46 231.632 1026.96 233.071C1026.96 233.071 1003.65 232.768 1003.19 232.748C999.925 232.577 996.716 233.419 993.483 233.212C986.779 232.559 980.033 232.956 973.336 233.297C965.998 233.108 958.636 232.62 951.322 233.413C946.253 234.072 941.166 233.315 936.092 233.48C827.97 233.459 793.38 234.09 793.38 234.09C740.623 234.042 715.958 234.419 715.958 234.419C712.535 234.245 676.489 234.83 670.803 234.596C670.189 234.606 617.083 234.888 615.291 234.828C592.14 235.164 594.054 233.133 586.092 239.14C584.366 240.403 582.969 242.031 581.621 243.672C579.047 246.777 575.924 249.345 573.069 252.175C569.128 255.817 542.62 281.398 539.179 285.479C531.122 294.287 522.302 302.369 513.957 310.902C510.255 314.531 506.284 319.033 500.623 318.868C500.009 318.868 405.454 318.838 402.115 319.246C398.559 319.703 396.113 322.546 393.777 324.961C391.337 327.59 388.385 329.682 386.024 332.378C384.085 334.556 348.602 369.501 342.345 375.295C334.972 382.886 310.886 406.158 308.389 409.026C308.389 409.026 287.95 428.849 287.949 428.85C284.728 431.955 282.075 435.803 277.982 437.847C273.852 440.049 269.04 439.11 264.575 439.347C253.375 439.635 223.02 439.102 215.174 439.493C207.068 439.945 202.538 439.257 168.14 439.67C162.779 439.67 154.609 448.568 153.507 453.028C150.506 466.629 150.518 479.598 136.501 482.971C133.335 483.721 129.901 484.411 126.778 483.166C122.185 481.537 117.36 479.165 115.079 474.602C111.049 468.021 111.676 457.038 122.521 450.826C128.43 447.517 142.786 447.195 148.023 443.836C160.562 433.315 156.421 432.036 172.47 432.1C193.818 431.964 236.796 432.337 248.068 431.52C277.704 430.653 269.381 434.018 279.585 424.749C282.922 420.979 287.264 418.229 290.296 414.184C292.589 411.171 295.822 409.091 298.372 406.309C298.373 406.308 339.27 366.137 339.27 366.137C340.104 365.329 360.393 345.179 360.393 345.179C361.556 344.124 375.939 329.593 376.764 328.637C386.088 321.158 390.793 313.817 395.234 312.156C400.307 310.178 424.694 311.848 466.483 310.979C470.985 310.49 491.301 310.589 493.846 310.827C502.878 311.516 501.377 310.605 521.77 290.54C544.578 268.604 533.329 280.154 555.318 258.267C560.077 254.176 570.09 242.678 574.648 239.608C579.496 236.368 581.938 226.7 591.483 227.043C605.331 227.144 660.408 226.604 660.408 226.604C668.297 226.421 709.766 226.478 711.065 226.513C734.783 226.616 773.305 225.649 788.505 226.257C793.989 226.001 799.478 226.098 804.974 225.867C813.71 225.758 822.456 226.161 831.197 225.88ZM124.327 472.2C128.097 479.14 142.917 477.762 141.918 463.386C140.985 459.543 137.776 456.371 133.976 455.353C124.502 452.145 117.252 464.494 124.327 472.2Z" fill="#F7EC2F"/>
<path opacity="0.96" d="M998.271 207.606C1001.58 207.697 1004.85 206.356 1008.17 207.075C1012.36 207.99 1016.68 207.532 1020.94 207.581C1056.25 207.736 1048.41 205.424 1060.55 213.565V224.404C1056.28 221.848 1053.39 217.402 1048.73 215.493C1043.44 213.986 1037.9 215.225 1032.51 214.993C992.019 215.606 960.539 214.895 960.539 214.895C957.166 215.066 953.793 214.352 950.456 214.95C947.736 215.432 945.027 214.761 942.331 214.816C940.047 214.948 865.252 216.027 841.547 215.859C839.602 215.966 693.993 216.557 693.382 216.56C693.382 216.56 587.811 217.042 587.81 217.042C581.621 216.918 581.811 220.783 524.96 275.555C491.741 309.084 505.878 299.006 467.697 300.984C467.697 300.984 444.569 301.206 395.697 301.24C382.702 301.554 388.119 300.98 374.946 312.719C365.408 322.335 311.004 375.612 311.004 375.612C266.7 418.987 274.586 414.262 265.025 421.432C258.979 423.401 255.009 425.576 245.482 420.255C239.878 417.134 233.993 408.257 238.211 398.614C242.568 390.393 246.864 390.1 251.575 388.092C260.249 387.708 268.422 391.13 276.785 392.874C281.95 394.047 285.943 386.739 294.645 379.467C294.807 379.282 332.771 341.635 332.944 341.46C336.646 338.099 340.465 334.824 343.679 330.969C345.704 328.487 348.394 326.687 350.602 324.375C357.164 317.565 366.394 309.102 366.394 309.102C382.718 292.039 381.014 293.795 389.603 293.335C394.555 293.335 471.827 293.245 474.979 293.006C494.137 292.317 493.08 295.374 501.732 285.833C501.961 285.5 537.029 250.818 539.556 248.644C594.973 194.846 562.124 212.536 640.925 208.765C678.918 209.261 809.083 207.913 844.633 208.064C852.246 207.848 875.716 207.948 875.716 207.948C888.347 207.364 930.549 208.935 938.432 208.198C941.775 207.539 945.184 207.948 948.539 208.381C948.758 208.222 949.192 207.917 949.411 207.759C952.717 207.796 956.005 208.601 959.341 208.265C972.281 206.996 985.291 207.764 998.271 207.606ZM247.075 402.414C247.081 405 246.794 407.824 248.362 410.075C249.911 412.307 251.595 414.991 254.492 415.534C263.689 417.245 265.9 410.119 266.789 407.916C266.807 405.385 267.545 402.603 266.045 400.346C261.292 390.804 247.143 394.222 247.075 402.414Z" fill="#7F3F98"/>
<path opacity="0.96" d="M140.956 394.451C152.594 378.514 180.133 387.567 175.858 408.425C171.147 421.817 155.497 424.07 146.184 417.715C144.324 416.404 142.908 414.61 141.353 412.988C137.662 407.565 137.717 400.069 140.956 394.451ZM149.623 395.665C147.433 398.038 147.854 401.466 148.031 404.424L148.671 404.241C148.665 404.698 148.653 405.607 148.647 406.065C150.385 408.56 152.197 411.616 155.472 412.158C165.488 414.685 173.194 396.392 159.248 392.487C155.778 391.297 151.789 392.798 149.623 395.665Z" fill="#7F3F98"/>
</svg>
