<?xml version="1.0" encoding="utf-8"?>
<!-- Generator: Adobe Illustrator 22.0.1, SVG Export Plug-In . SVG Version: 6.00 Build 0)  -->
<svg version="1.1" id="Layer_1" xmlns="http://www.w3.org/2000/svg" xmlns:xlink="http://www.w3.org/1999/xlink" x="0px" y="0px"
	 viewBox="0 0 100 84.8" style="enable-background:new 0 0 100 84.8;" xml:space="preserve">
<path d="M97.3,37.4c-0.1-0.5-0.5-0.9-1.1-1l-0.6-0.1v-9l1-0.9c0.4-0.4,0.6-0.9,0.4-1.4c-0.1-0.5-0.6-0.9-1.1-1l-5.8-1.1l0-7.6l0-0.2
	l1.1-0.9c0.4-0.4,0.6-0.9,0.4-1.4c-0.1-0.5-0.6-0.9-1.1-1L43.4,3.1c-0.4-0.1-0.7,0-1,0.2L5.8,29.1c-0.7,0.4-3.2,2.1-3.2,7
	c0.1,5.3,3.2,7.7,3.3,7.8c0,0,0,0,0.1,0c0,0,0.1,0,0.1,0.1c0,0,0.1,0,0.1,0.1c0,0,0.1,0,0.1,0c0,0,0.1,0,0.1,0c0,0,0,0,0.1,0
	l2.2,0.5c-0.4,1-0.6,2.2-0.6,3.7c0,2.6,0.8,4.5,1.6,5.8L8,55.2c-0.7,0.4-3.2,2.1-3.2,7c0.1,5.3,3.2,7.7,3.3,7.8
	c0.1,0.1,0.4,0.2,0.5,0.3l49.5,10.5c0,0,0,0,0,0l1.8,0.4c0.1,0,0.2,0,0.3,0c0.3,0,0.7-0.1,0.9-0.3l32.5-28.1
	c0.4-0.3,0.6-0.9,0.4-1.4c-0.1-0.5-0.5-0.9-1.1-1l-0.6-0.1v-7.6l4.5-3.8C97.3,38.4,97.5,37.9,97.3,37.4z M57.8,42.5
	c0.3,0,0.7-0.1,0.9-0.3l28.7-24.7v9L57.6,52v-9.5C57.6,42.5,57.7,42.5,57.8,42.5z M7.9,32l46.8,9.9v9.5L7.9,41.5
	C7.9,41.5,7.9,32,7.9,32z M10.1,67.7v-9.5l46.8,9.9v9.5L10.1,67.7z M13.4,53.7v-8.2l42.6,9c0,0,0,0,0,0l1.8,0.4c0.1,0,0.2,0,0.3,0
	c0.3,0,0.7-0.1,0.9-0.3l0.8-0.7l0.5,0.1v9.5L13.4,53.7z M89.6,52.5L59.7,78.2l0-9.6c0.1,0,0.2,0,0.3,0c0.3,0,0.7-0.1,0.9-0.3
	l1.6-1.4l0.7,0.1c0.1,0,0.2,0,0.3,0c0.3,0,0.7-0.1,0.9-0.3L89.6,45V52.5z M92.9,38.5L63,64.2l0-9.5c0.1,0,0.2,0,0.3,0
	c0.3,0,0.7-0.1,0.9-0.3l28.8-24.8L92.9,38.5z"/>
</svg>
